HIERARCHY
ROOT Hips
{
    OFFSET 0.000000 0.000000 0.000000
    CHANNELS 6 Xposition Yposition Zposition Zrotation Xrotation Yrotation
    JOINT Spine
    {
        OFFSET -0.000000 14.517291 0.000000
        CHANNELS 3 Zrotation Xrotation Yrotation
        JOINT Spine1
        {
            OFFSET -0.000000 37.558300 0.000000
            CHANNELS 3 Zrotation Xrotation Yrotation
            JOINT Neck
            {
                OFFSET -0.000000 37.404057 3.400369
                CHANNELS 3 Zrotation Xrotation Yrotation
                JOINT Head
                {
                    OFFSET -0.000000 24.785618 -3.540803
                    CHANNELS 3 Zrotation Xrotation Yrotation
                    End Site
                    {
                        OFFSET -0.000000 35.408028 0.000000
                    }
                }
            }
            JOINT LeftShoulder
            {
                OFFSET 6.992933 33.973492 -0.192664
                CHANNELS 3 Zrotation Xrotation Yrotation
                JOINT LeftArm
                {
                    OFFSET 21.527611 0.000000 0.000000
                    CHANNELS 3 Zrotation Xrotation Yrotation
                    JOINT LeftForeArm
                    {
                        OFFSET 56.353916 0.000000 0.000000
                        CHANNELS 3 Zrotation Xrotation Yrotation
                        JOINT LeftHand
                        {
                            OFFSET 47.774071 0.000000 0.000000
                            CHANNELS 3 Zrotation Xrotation Yrotation
                            End Site
                            {
                                OFFSET 26.556021 0.000000 0.000000
                            }
                        }
                    }
                }
            }
            JOINT RightShoulder
            {
                OFFSET -7.065357 33.973492 -0.192664
                CHANNELS 3 Zrotation Xrotation Yrotation
                JOINT RightArm
                {
                    OFFSET -21.527611 0.000000 0.000000
                    CHANNELS 3 Zrotation Xrotation Yrotation
                    JOINT RightForeArm
                    {
                        OFFSET -56.353916 0.000000 0.000000
                        CHANNELS 3 Zrotation Xrotation Yrotation
                        JOINT RightHand
                        {
                            OFFSET -47.774071 0.000000 0.000000
                            CHANNELS 3 Zrotation Xrotation Yrotation
                            End Site
                            {
                                OFFSET -26.556021 0.000000 0.000000
                            }
                        }
                    }
                }
            }
        }
    }
    JOINT LeftUpLeg
    {
        OFFSET 17.704014 0.000000 0.000000
        CHANNELS 3 Zrotation Xrotation Yrotation
        JOINT LeftLeg
        {
            OFFSET -0.000000 -81.181816 0.000000
            CHANNELS 3 Zrotation Xrotation Yrotation
            JOINT LeftFoot
            {
                OFFSET -0.000000 -62.821102 0.000000
                CHANNELS 3 Zrotation Xrotation Yrotation
                JOINT LeftToeBase
                {
                    OFFSET -0.000000 -11.507608 26.556021
                    CHANNELS 3 Zrotation Xrotation Yrotation
                    End Site
                    {
                        OFFSET -0.000000 0.000000 7.081605
                    }
                }
            }
        }
    }
    JOINT RightUpLeg
    {
        OFFSET -17.704014 0.000000 0.000000
        CHANNELS 3 Zrotation Xrotation Yrotation
        JOINT RightLeg
        {
            OFFSET -0.000000 -81.181816 0.000000
            CHANNELS 3 Zrotation Xrotation Yrotation
            JOINT RightFoot
            {
                OFFSET -0.000000 -62.821102 0.000000
                CHANNELS 3 Zrotation Xrotation Yrotation
                JOINT RightToeBase
                {
                    OFFSET -0.000000 -11.507608 26.556021
                    CHANNELS 3 Zrotation Xrotation Yrotation
                    End Site
                    {
                        OFFSET -0.000000 0.000000 7.081605
                    }
                }
            }
        }
    }
}
MOTION
Frames:    11
Frame Time:    0.008333
11.161656    154.726654    -119.085884    -1.110778    -7.006114    46.029308    0.637328    -2.463357    -1.892471    -9.786784    3.457139    -0.340664    -1.065590    -1.353541    -20.470455    20.416061    7.078092    -19.631401    9.311208    5.343944    -30.125982    -26.142025    25.110912    -81.865250    26.842928    -41.859207    -29.117432    13.864244    -36.006905    3.453023    -16.228848    -9.184642    0.746797    31.770487    -22.940765    83.323059    2.080652    -6.458387    17.507200    -4.004167    -7.814600    29.273991    21.320536    -4.996926    -0.216986    -14.241949    38.323639    -19.535360    3.963915    -28.218027    42.496647    0.000000    0.000000    0.000000    -16.393221    -16.295763    -15.104165    8.974495    23.124062    -16.546272    5.427108    9.748057    -14.300239    0.000000    0.000000    0.000000    
11.196142    154.731644    -119.080116    -1.113093    -7.003155    46.075684    0.645707    -2.453448    -1.901570    -9.794061    3.452907    -0.343907    -1.025934    -1.389534    -20.474270    20.374075    7.044826    -19.638678    9.330845    5.356287    -30.178917    -26.067081    25.100351    -81.867928    25.071072    -41.520962    -31.285229    14.109364    -35.616474    3.359199    -16.209755    -9.177739    0.718558    31.730310    -22.914560    83.323257    2.069812    -6.490736    17.502132    -3.988190    -7.841280    29.282312    21.309731    -5.007012    -0.267740    -14.249800    38.312382    -19.523849    3.969050    -28.223492    42.494198    0.000000    0.000000    0.000000    -16.407589    -16.272726    -15.122281    8.969539    23.128531    -16.515524    5.466795    9.720251    -14.344311    0.000000    0.000000    0.000000    
11.231716    154.736954    -119.067909    -1.111976    -7.003021    46.124287    0.643763    -2.455141    -1.916523    -9.793362    3.474455    -0.347022    -0.981130    -1.379029    -20.487942    20.356651    6.937300    -19.642427    9.351749    5.347415    -30.236393    -26.038498    25.099606    -81.837128    23.308102    -41.151085    -33.415920    13.524523    -35.308735    2.876092    -16.191702    -9.176173    0.694259    31.719917    -22.903973    83.340652    2.079910    -6.497314    17.482138    -3.939691    -7.835647    29.260311    21.297226    -5.014226    -0.303300    -14.233307    38.312222    -19.550648    3.963944    -28.228075    42.492630    0.000000    0.000000    0.000000    -16.419937    -16.238377    -15.114384    8.981478    23.108559    -16.545120    5.470076    9.717518    -14.372927    0.000000    0.000000    0.000000    
11.262755    154.743332    -119.059464    -1.113416    -6.995383    46.167709    0.634912    -2.453739    -1.936366    -9.781298    3.480603    -0.353454    -0.971485    -1.347775    -20.505293    20.377121    6.818715    -19.639610    9.362823    5.333670    -30.283119    -26.024248    25.196644    -81.778984    22.722000    -40.174034    -34.757423    9.805629    -34.364594    1.064176    -16.194386    -9.173330    0.678575    31.719774    -22.891558    83.353012    2.096436    -6.493837    17.476274    -3.926958    -7.829774    29.217903    21.277298    -5.024848    -0.326903    -14.210572    38.321842    -19.571550    4.046522    -28.125259    42.498703    0.000000    0.000000    0.000000    -16.437309    -16.220182    -15.109324    8.986426    23.114061    -16.543823    5.508359    9.696753    -14.415822    0.000000    0.000000    0.000000    
11.295919    154.750198    -119.048950    -1.113918    -6.992934    46.212875    0.627261    -2.453599    -1.962634    -9.765554    3.492571    -0.361560    -0.967070    -1.315118    -20.519100    20.390419    6.704226    -19.633455    9.360724    5.308589    -30.330307    -26.183754    25.176134    -81.672577    20.994551    -39.550793    -36.881062    9.641898    -33.810371    0.892016    -16.197954    -9.159206    0.662545    31.685493    -22.866966    83.372391    2.067435    -6.503934    17.446335    -3.850935    -7.814926    29.209509    21.264805    -5.034073    -0.362798    -14.197957    38.312397    -19.592579    4.055373    -28.122551    42.509090    0.000000    0.000000    0.000000    -16.447428    -16.196041    -15.103071    8.990377    23.104778    -16.561350    5.529117    9.690488    -14.459699    0.000000    0.000000    0.000000    
11.327920    154.753265    -119.042732    -1.117146    -6.982132    46.258907    0.621476    -2.453460    -1.993845    -9.765959    3.495806    -0.371654    -0.969121    -1.256190    -20.548117    20.446398    6.569895    -19.635592    9.381196    5.293803    -30.358091    -26.100584    25.217955    -81.676804    19.365459    -39.006710    -38.926208    9.867693    -33.366333    0.885403    -16.188944    -9.163517    0.665156    31.700310    -22.863264    83.387733    2.089814    -6.467705    17.424549    -3.807306    -7.770310    29.202360    21.245991    -5.059737    -0.398124    -14.192140    38.322594    -19.588020    4.072269    -28.109665    42.510056    0.000000    0.000000    0.000000    -16.469694    -16.180916    -15.098790    9.005348    23.105734    -16.583609    5.546144    9.673930    -14.489056    0.000000    0.000000    0.000000    
11.359687    154.755737    -119.029114    -1.121027    -6.973835    46.292831    0.607750    -2.448122    -2.014395    -9.745199    3.483176    -0.380148    -0.989792    -1.193164    -20.571396    20.499733    6.454954    -19.632284    9.371336    5.252655    -30.415535    -26.005827    25.290440    -81.606735    17.587410    -38.491852    -41.141586    10.207578    -33.009266    1.126946    -16.192739    -9.167496    0.665534    31.715858    -22.845873    83.399574    2.119496    -6.450889    17.404408    -3.775681    -7.750150    29.220545    21.237785    -5.072268    -0.435766    -14.197843    38.323357    -19.585997    4.038059    -28.129028    42.502300    0.000000    0.000000    0.000000    -16.482180    -16.168861    -15.083026    9.012037    23.109682    -16.608524    5.565680    9.649053    -14.507146    0.000000    0.000000    0.000000    
11.391918    154.756119    -119.022278    -1.124303    -6.963163    46.322704    0.609919    -2.440379    -2.034246    -9.746164    3.466248    -0.388235    -1.034353    -1.181503    -20.601164    20.554472    6.427992    -19.647356    9.365593    5.221805    -30.455853    -26.028280    25.169559    -81.417183    15.306549    -37.661961    -43.654041    10.510809    -32.511280    1.365115    -16.182913    -9.143959    0.679604    31.695543    -22.841204    83.410828    2.118886    -6.451168    17.388355    -3.770604    -7.748831    29.223534    21.227638    -5.088444    -0.481565    -14.220860    38.323868    -19.578312    4.084707    -28.113016    42.525913    0.000000    0.000000    0.000000    -16.501015    -16.166962    -15.072767    9.022143    23.124231    -16.620945    5.582853    9.635690    -14.540023    0.000000    0.000000    0.000000    
11.429437    154.756790    -119.010818    -1.119106    -6.957945    46.352325    0.607769    -2.425160    -2.044540    -9.743985    3.451219    -0.392884    -1.032733    -1.144666    -20.629251    20.564457    6.352130    -19.663025    9.377538    5.189000    -30.491524    -25.573906    25.297573    -81.438988    13.450967    -37.347237    -45.976753    10.733058    -32.524632    1.583404    -16.182751    -9.145555    0.677223    31.728767    -22.828684    83.425888    2.154490    -6.415717    17.374542    -3.771947    -7.719476    29.238520    21.214952    -5.086102    -0.505136    -14.223010    38.320141    -19.574030    4.066944    -28.122383    42.513268    0.000000    0.000000    0.000000    -16.525070    -16.149569    -15.050372    9.045575    23.133429    -16.622837    5.596802    9.611463    -14.587615    0.000000    0.000000    0.000000    
11.463583    154.758789    -119.003365    -1.118320    -6.946777    46.369698    0.629381    -2.419587    -2.068565    -9.776284    3.429703    -0.401941    -1.041184    -1.125355    -20.630407    20.569742    6.315428    -19.655935    9.386481    5.161434    -30.492098    -25.420462    25.271177    -81.310715    11.503008    -36.538338    -48.287655    10.171419    -32.153206    1.536782    -16.174257    -9.136628    0.712119    31.737354    -22.806850    83.430511    2.154866    -6.401488    17.371132    -3.795511    -7.712339    29.266117    21.199852    -5.088151    -0.514247    -14.225387    38.313633    -19.554405    4.086127    -28.107115    42.495258    0.000000    0.000000    0.000000    -16.545132    -16.150341    -15.025429    9.060219    23.146708    -16.639589    5.593536    9.608349    -14.619089    0.000000    0.000000    0.000000    
11.497177    154.758759    -118.992844    -1.116248    -6.935564    46.384369    0.614443    -2.403551    -2.047915    -9.762779    3.423861    -0.395844    -1.025946    -1.150330    -20.668322    20.541372    6.295660    -19.696999    9.451013    5.096698    -30.522892    -25.553547    25.112474    -81.145508    9.114940    -35.434345    -50.706352    9.974743    -31.729626    1.355690    -16.178373    -9.144850    0.651848    31.729675    -22.772684    83.437828    2.168895    -6.398171    17.377205    -3.830650    -7.721100    29.286871    21.186333    -5.087275    -0.528154    -14.237740    38.309093    -19.537176    4.081626    -28.107510    42.489330    0.000000    0.000000    0.000000    -16.566942    -16.152040    -15.003376    9.074625    23.168812    -16.654379    5.632269    9.580767    -14.654860    0.000000    0.000000    0.000000    
